<svg xmlns="http://www.w3.org/2000/svg" width="24" height="24" viewBox="0 0 24 24" fill="none">
  <path fill-rule="evenodd" clip-rule="evenodd" d="M12.7665 3.98276C13.0094 4.08343 13.2302 4.23099 13.4161 4.41701L19.5841 10.584C19.7703 10.7699 19.918 10.9907 20.0187 11.2338C20.1195 11.4769 20.1713 11.7374 20.1713 12.0005C20.1713 12.2636 20.1195 12.5242 20.0187 12.7672C19.918 13.0103 19.7703 13.2311 19.5841 13.417L13.4161 19.584C13.2302 19.77 13.0094 19.9176 12.7665 20.0183C12.5235 20.1189 12.2631 20.1707 12.0001 20.1707C11.7371 20.1707 11.4767 20.1189 11.2337 20.0183C10.9908 19.9176 10.77 19.77 10.5841 19.584L4.4161 13.417C4.22994 13.2311 4.08225 13.0103 3.98149 12.7672C3.88072 12.5242 3.82886 12.2636 3.82886 12.0005C3.82886 11.7374 3.88072 11.4769 3.98149 11.2338C4.08225 10.9907 4.22994 10.7699 4.4161 10.584L10.5841 4.41701C10.77 4.23099 10.9908 4.08343 11.2337 3.98276C11.4767 3.88208 11.7371 3.83026 12.0001 3.83026C12.2631 3.83026 12.5235 3.88208 12.7665 3.98276ZM11.293 13.7071C11.4805 13.8946 11.7349 14 12.0001 14C12.2653 14 12.5197 13.8946 12.7072 13.7071C12.8947 13.5196 13.0001 13.2652 13.0001 13V8C13.0001 7.73478 12.8947 7.48043 12.7072 7.29289C12.5197 7.10536 12.2653 7 12.0001 7C11.7349 7 11.4805 7.10536 11.293 7.29289C11.1055 7.48043 11.0001 7.73478 11.0001 8V13C11.0001 13.2652 11.1055 13.5196 11.293 13.7071ZM11.293 16.7071C11.4805 16.8946 11.7349 17 12.0001 17C12.2653 17 12.5197 16.8946 12.7072 16.7071C12.8947 16.5196 13.0001 16.2652 13.0001 16C13.0001 15.7348 12.8947 15.4804 12.7072 15.2929C12.5197 15.1054 12.2653 15 12.0001 15C11.7349 15 11.4805 15.1054 11.293 15.2929C11.1055 15.4804 11.0001 15.7348 11.0001 16C11.0001 16.2652 11.1055 16.5196 11.293 16.7071Z" fill="#E81A3E"/>
</svg>