<svg width="36" height="36" viewBox="0 0 36 28" fill="none" xmlns="http://www.w3.org/2000/svg">
<g id="&#240;&#159;&#142;&#176; close fill &#60;Icon&#62;" filter="url(#filter0_d_2192_118409)">
<path id="Subtract" fill-rule="evenodd" clip-rule="evenodd" d="M8 14C8 8.48 12.48 4 18 4C23.52 4 28 8.48 28 14C28 19.52 23.52 24 18 24C12.48 24 8 19.52 8 14ZM16.1998 10.7899C15.8052 10.3977 15.1721 10.4043 14.7856 10.8047C14.3992 11.205 14.4057 11.8475 14.8002 12.2397L16.571 14L14.8002 15.7603C14.4057 16.1525 14.3992 16.795 14.7856 17.1953C15.1721 17.5957 15.8052 17.6023 16.1998 17.2101L18 15.4206L19.8002 17.2101C20.1948 17.6023 20.8279 17.5957 21.2144 17.1953C21.6008 16.795 21.5943 16.1525 21.1998 15.7603L19.429 14L21.1998 12.2397C21.5943 11.8475 21.6008 11.205 21.2144 10.8047C20.8279 10.4043 20.1948 10.3977 19.8002 10.7899L18 12.5794L16.1998 10.7899Z" fill="#6E7882"/>
</g>
<defs>
<filter id="filter0_d_2192_118409" x="-2" y="-2" width="40" height="40" filterUnits="userSpaceOnUse" color-interpolation-filters="sRGB">
<feFlood flood-opacity="0" result="BackgroundImageFix"/>
<feColorMatrix in="SourceAlpha" type="matrix" values="0 0 0 0 0 0 0 0 0 0 0 0 0 0 0 0 0 0 127 0" result="hardAlpha"/>
<feOffset dy="4"/>
<feGaussianBlur stdDeviation="4"/>
<feComposite in2="hardAlpha" operator="out"/>
<feColorMatrix type="matrix" values="0 0 0 0 0 0 0 0 0 0 0 0 0 0 0 0 0 0 0.1 0"/>
<feBlend mode="normal" in2="BackgroundImageFix" result="effect1_dropShadow_2192_118409"/>
<feBlend mode="normal" in="SourceGraphic" in2="effect1_dropShadow_2192_118409" result="shape"/>
</filter>
</defs>
</svg>
