<svg xmlns="http://www.w3.org/2000/svg" width="24" height="34" viewBox="0 0 34 34" fill="none">
  <g clip-path="url(#clip0_1715_92152)">
    <path d="M24.0417 12.7279L20.5061 16.2634C19.7142 17.0554 19.2404 18.0524 19.0919 19.0918L14.8493 14.8492C15.917 14.7007 16.8999 14.2128 17.6777 13.435L21.2132 9.89945L24.0417 12.7279ZM27.5772 13.435L20.5061 6.36392C20.1172 5.97501 19.4808 5.97501 19.0919 6.36392C18.703 6.75283 18.703 7.38923 19.0919 7.77813L19.799 8.48524L16.2635 12.0208C15.0897 13.1946 13.1946 13.1946 12.0209 12.0208L10.6066 13.435L14.8281 17.6564L9.87832 22.6062V24.0204H11.2925L16.2423 19.0706L20.5061 23.3345L21.9203 21.9203C20.7465 20.7465 20.7465 18.8514 21.9203 17.6776L25.4559 14.1421L26.163 14.8492C26.5519 15.2381 27.1883 15.2381 27.5772 14.8492C27.9661 14.4603 27.9661 13.8239 27.5772 13.435Z" fill="#1E90FF"/>
  </g>
  <defs>
    <clipPath id="clip0_1715_92152">
      <rect width="24" height="24" fill="white" transform="translate(16.9706) rotate(45)"/>
    </clipPath>
  </defs>
</svg>