<svg width="56" height="56" viewBox="0 0 56 56" fill="none" xmlns="http://www.w3.org/2000/svg">
<g id="Icons/Stickersheet">
<circle id="Ellipse 1" cx="28" cy="28" r="28" fill="#EBECF0"/>
<g id="Frame 4">
<g id="Frame 5">
<g id="Group 3">
<g id="Group 2">
<path id="Vector 1" d="M21.1952 26.4806L30.4148 20.6781" stroke="#EB3B5A" stroke-width="2" stroke-linecap="round"/>
<path id="Vector 2" d="M21.6342 20.7223L31 26.2777" stroke="#EB3B5A" stroke-width="2" stroke-linecap="round"/>
<ellipse id="Ellipse 2" cx="20.3171" cy="26.927" rx="1.31709" ry="1.33904" fill="#D9D9D9" stroke="#EB3B5A" stroke-width="2"/>
<ellipse id="Ellipse 3" cx="20.3171" cy="20.2317" rx="1.31709" ry="1.33904" fill="#D9D9D9" stroke="#EB3B5A" stroke-width="2"/>
</g>
<path id="Vector 4" d="M19 35V36C19 36.5523 19.4477 37 20 37H22" stroke="#EB3B5A" stroke-width="2" stroke-linecap="square"/>
<path id="Vector 7" d="M37 24L37 23C37 22.4477 36.5523 22 36 22L34 22" stroke="#EB3B5A" stroke-width="2" stroke-linecap="square"/>
<path id="Vector 8" d="M33 37L36 37C36.5523 37 37 36.5523 37 36L37 35" stroke="#EB3B5A" stroke-width="2" stroke-linecap="square"/>
<line id="Line 9" x1="24" y1="37" x2="27" y2="37" stroke="#EB3B5A" stroke-width="2"/>
<line id="Line 10" x1="28" y1="37" x2="31" y2="37" stroke="#EB3B5A" stroke-width="2"/>
<line id="Line 11" x1="37" y1="30" x2="37" y2="33" stroke="#EB3B5A" stroke-width="2"/>
<line id="Line 13" x1="19" y1="31" x2="19" y2="33" stroke="#EB3B5A" stroke-width="2"/>
<line id="Line 12" x1="37" y1="26" x2="37" y2="29" stroke="#EB3B5A" stroke-width="2"/>
</g>
</g>
</g>
</g>
</svg>
