<svg width="24" height="24" viewBox="0 0 24 24" fill="none" xmlns="http://www.w3.org/2000/svg">
<g id="&#240;&#159;&#142;&#176; checklist fill &#60;Icon&#62;">
<path id="Subtract" fill-rule="evenodd" clip-rule="evenodd" d="M2 12C2 6.48 6.48 2 12 2C17.52 2 22 6.48 22 12C22 17.52 17.52 22 12 22C6.48 22 2 17.52 2 12ZM9.06422 10.9232C9.20106 10.9842 9.32482 11.0729 9.42828 11.1841L10.8784 12.6896L14.5717 8.85545C14.6752 8.74425 14.7989 8.65555 14.9358 8.59453C15.0726 8.53351 15.2198 8.50139 15.3687 8.50004C15.5176 8.4987 15.6653 8.52816 15.8031 8.5867C15.941 8.64525 16.0662 8.7317 16.1715 8.84102C16.2768 8.95034 16.3601 9.08034 16.4165 9.22343C16.4729 9.36653 16.5013 9.51984 16.5 9.67444C16.4987 9.82904 16.4677 9.98182 16.4089 10.1239C16.3502 10.2659 16.2647 10.3944 16.1576 10.5018L11.6714 15.1591C11.4611 15.3774 11.1758 15.5 10.8784 15.5C10.581 15.5 10.2958 15.3774 10.0855 15.1591L7.8424 12.8305C7.73528 12.723 7.64983 12.5946 7.59105 12.4525C7.53228 12.3105 7.50134 12.1577 7.50004 12.0031C7.49875 11.8485 7.52713 11.6952 7.58352 11.5521C7.63991 11.409 7.72319 11.279 7.8285 11.1697C7.9338 11.0603 8.05903 10.9739 8.19686 10.9154C8.33469 10.8568 8.48238 10.8273 8.6313 10.8287C8.78022 10.83 8.92739 10.8622 9.06422 10.9232Z" fill="#1E90FF"/>
</g>
</svg>
