<svg xmlns="http://www.w3.org/2000/svg" width="108" height="98" viewBox="0 0 108 98" fill="none">
  <path d="M28.1194 77.1615C24.5956 77.155 21.1625 76.0664 18.303 74.0489C15.4436 72.0314 13.3017 69.1866 12.1786 65.9145L12.0215 65.4073C11.5173 63.8618 11.2546 62.2504 11.2423 60.628V30.5664L0.322955 66.2708C-0.344939 68.8117 0.0318337 71.5078 1.37223 73.7793C2.71262 76.0508 4.90954 77.7162 7.49042 78.4172L77.0839 96.6758C77.9306 96.8919 78.8018 97.0016 79.6767 97.0024C81.8814 97.015 84.0289 96.3156 85.7871 95.0125C87.5453 93.7094 88.8163 91.8751 89.4036 89.7932L93.4564 77.1615H28.1194Z" fill="#EBEDF3"/>
  <path d="M40.4916 30.8629C42.2719 30.8629 44.0122 30.3457 45.4925 29.3768C46.9728 28.4078 48.1265 27.0306 48.8078 25.4193C49.4891 23.808 49.6674 22.0349 49.32 20.3244C48.9727 18.6138 48.1154 17.0426 46.8565 15.8093C45.5977 14.5761 43.9938 13.7363 42.2477 13.396C40.5016 13.0558 38.6917 13.2304 37.0469 13.8978C35.4022 14.5652 33.9963 15.6955 33.0072 17.1456C32.0182 18.5958 31.4902 20.3007 31.4902 22.0447C31.4924 24.3828 32.4414 26.6245 34.1291 28.2778C35.8167 29.9311 38.105 30.8608 40.4916 30.8629Z" fill="#7E8695"/>
  <path d="M96.7532 0H29.2439C26.2606 0.00420285 23.4007 1.16728 21.2914 3.23417C19.1821 5.30106 17.9957 8.10306 17.9922 11.0257V59.5216C17.9965 62.4429 19.1826 65.2434 21.2907 67.3095C23.3988 69.3756 26.2569 70.5388 29.2388 70.5443H96.7481C99.731 70.5401 102.59 69.3775 104.7 67.3112C106.809 65.245 107.996 62.4437 108 59.5216V11.0257C107.996 8.10391 106.811 5.30267 104.702 3.23592C102.594 1.16917 99.7357 0.00551525 96.7532 0ZM29.2439 8.81817H96.7532C97.35 8.81843 97.9222 9.05078 98.3442 9.46415C98.7661 9.87753 99.0033 10.4381 99.0036 11.0227V42.323L84.7862 26.0704C84.0343 25.2246 83.1072 24.5453 82.0665 24.0779C81.0257 23.6105 79.8953 23.3656 78.7505 23.3596C77.602 23.3648 76.4685 23.6163 75.4298 24.0964C74.3912 24.5766 73.4724 25.2737 72.7381 26.1389L56.0201 45.7921L50.574 40.4699C49.0926 39.0224 47.0856 38.2096 44.9933 38.2096C42.9009 38.2096 40.894 39.0224 39.4125 40.4699L26.9895 52.64V11.0257C26.9891 10.7356 27.0472 10.4483 27.1603 10.1802C27.2735 9.91214 27.4395 9.66859 27.649 9.46351C27.8584 9.25843 28.1071 9.09586 28.3808 8.98512C28.6545 8.87438 28.9478 8.81764 29.2439 8.81817Z" fill="#ABB1BB"/>
</svg>