<svg width="31" height="32" viewBox="0 0 31 32" fill="none" xmlns="http://www.w3.org/2000/svg">
<g id="Frame" clip-path="url(#clip0_101_1235)">
<g id="XMLID 1">
<g id="XMLID 3">
<g id="XMLID 20">
<g id="XMLID 21">
<path id="XMLID 22" d="M30.6628 21.7094C30.6551 21.6481 30.6398 21.5868 30.6244 21.5255C30.6244 21.5178 30.6244 21.5101 30.6168 21.5025C30.6014 21.4412 30.5861 21.3875 30.5631 21.3262V21.3185C30.5478 21.2649 30.5248 21.2112 30.5018 21.1576C30.5018 21.1499 30.4941 21.1422 30.4941 21.1346C30.4711 21.0809 30.4481 21.0273 30.4175 20.9813C30.4098 20.9736 30.4098 20.966 30.4022 20.9506C30.3485 20.8433 30.2795 20.7437 30.2105 20.644C30.2105 20.6364 30.2029 20.6364 30.2029 20.6287C30.1645 20.5827 30.1262 20.5291 30.0879 20.4831C29.789 20.1458 29.4057 19.8929 28.9688 19.7549C28.8309 19.7166 28.6929 19.6783 28.5473 19.6629C28.164 19.617 27.7885 19.6553 27.4436 19.7702C27.3209 19.8086 27.2059 19.8622 27.091 19.9235C27.0527 19.9389 27.022 19.9619 26.9837 19.9772C26.976 19.9772 26.976 19.9849 26.9683 19.9849C26.9377 20.0002 26.907 20.0232 26.8764 20.0385L26.8534 20.0538C26.8227 20.0692 26.7997 20.0922 26.7767 20.1075C26.7691 20.1152 26.7614 20.1228 26.7537 20.1228C26.6924 20.1688 26.6234 20.2225 26.5698 20.2761L16.6056 13.7687L16.6132 5.21486C17.1574 5.03857 17.6097 4.67833 17.9163 4.21078L25.3664 9.0779C25.5197 8.5797 25.8033 8.1428 26.1712 7.79789L18.2995 2.6625C18.2842 2.5092 18.2612 2.35591 18.2152 2.21028C18.2075 2.19495 18.2075 2.17962 18.1999 2.16429C18.1922 2.14896 18.1922 2.12597 18.1845 2.11064C18.1769 2.09531 18.1692 2.07231 18.1692 2.05698C18.1615 2.04165 18.1539 2.02632 18.1539 2.00333C18.1462 1.988 18.1385 1.96501 18.1309 1.94968C18.1232 1.93435 18.1155 1.91902 18.1079 1.90369C18.1002 1.88836 18.0925 1.86536 18.0849 1.85003C18.0772 1.8347 18.0696 1.81937 18.0619 1.80405C18.0542 1.78872 18.0466 1.77339 18.0389 1.75039C18.0312 1.73506 18.0236 1.71973 18.0159 1.7044C18.0082 1.68907 18.0006 1.67374 17.9852 1.65075C17.9776 1.63542 17.9699 1.62009 17.9622 1.60476C17.9546 1.58943 17.9392 1.5741 17.9316 1.55877C17.9239 1.54344 17.9163 1.52811 17.9009 1.52045C17.8933 1.50512 17.8779 1.48979 17.8703 1.47446C17.8626 1.45913 17.8549 1.45147 17.8396 1.43614C17.8319 1.42081 17.8166 1.40548 17.8089 1.39015C17.8013 1.37482 17.786 1.36715 17.7783 1.35182C17.7553 1.32117 17.7323 1.29817 17.7093 1.26751C17.7016 1.25218 17.6863 1.24452 17.6786 1.22919C17.6633 1.21386 17.6557 1.19853 17.6403 1.19086C17.625 1.17553 17.6173 1.16787 17.602 1.15254C17.5867 1.13721 17.579 1.12955 17.5637 1.11422C17.5483 1.09889 17.5407 1.09122 17.5254 1.07589C17.51 1.06056 17.5024 1.0529 17.487 1.03757C17.4717 1.02224 17.464 1.01457 17.4487 0.999245C17.4334 0.983916 17.418 0.976251 17.4104 0.968586C17.3951 0.960921 17.3797 0.945592 17.3721 0.937927C17.3567 0.930262 17.3414 0.914933 17.3261 0.907268C17.3107 0.899603 17.2954 0.884274 17.2801 0.876609C17.2648 0.868944 17.2494 0.853615 17.2341 0.84595C17.2188 0.838285 17.2034 0.822956 17.1881 0.815291C17.1728 0.807626 17.1574 0.799961 17.1421 0.784632C17.1268 0.776967 17.1115 0.761637 17.0885 0.753973C17.0731 0.746308 17.0578 0.738643 17.0501 0.730978C17.0271 0.715649 17.0118 0.707984 16.9888 0.700319C16.9812 0.692655 16.9658 0.68499 16.9582 0.68499C16.9275 0.66966 16.8968 0.654331 16.8585 0.639001C16.8509 0.631337 16.8355 0.631337 16.8279 0.623672C16.8049 0.616007 16.7819 0.600677 16.7589 0.593013C16.7435 0.585348 16.7282 0.585348 16.7206 0.577683C16.6976 0.570018 16.6822 0.562354 16.6592 0.554689C16.6439 0.547024 16.6286 0.547024 16.6132 0.539359C16.5903 0.531695 16.5749 0.52403 16.5519 0.52403C16.5366 0.516365 16.5213 0.516365 16.5059 0.5087C16.4829 0.501036 16.4676 0.501036 16.4446 0.493371C16.4293 0.485706 16.414 0.485706 16.3986 0.485706C16.3756 0.478041 16.3603 0.478041 16.3373 0.470377C16.322 0.470377 16.3067 0.462712 16.2913 0.462712C16.2683 0.455047 16.2453 0.455047 16.23 0.455047C16.2147 0.455047 16.1993 0.447382 16.184 0.447382C16.161 0.447382 16.138 0.439717 16.115 0.439717C16.0997 0.439717 16.0844 0.439717 16.069 0.432053C16.0461 0.432053 16.0154 0.424388 15.9924 0.424388C15.9771 0.424388 15.9694 0.424388 15.9541 0.424388C15.9158 0.424388 15.8774 0.424388 15.8391 0.424388C15.8008 0.424388 15.7548 0.424388 15.7165 0.424388C15.7011 0.424388 15.6858 0.424388 15.6781 0.424388C15.6475 0.424388 15.6245 0.432053 15.5938 0.432053C15.5785 0.432053 15.5632 0.439717 15.5478 0.439717C15.5249 0.439717 15.5019 0.447382 15.4789 0.447382C15.4635 0.447382 15.4405 0.455047 15.4252 0.455047C15.4022 0.462712 15.3792 0.462712 15.3562 0.470377C15.3409 0.470377 15.3179 0.478041 15.3026 0.485706C15.2796 0.493371 15.2642 0.493371 15.2413 0.501036C15.2259 0.5087 15.2029 0.5087 15.1876 0.516365C15.1646 0.52403 15.1493 0.52403 15.1263 0.531695C15.111 0.539359 15.088 0.547024 15.0726 0.547024C15.0573 0.554689 15.0343 0.562354 15.019 0.570018C15.0036 0.577683 14.9807 0.585348 14.9653 0.593013C14.95 0.600677 14.927 0.608342 14.9117 0.616007C14.8963 0.623672 14.8733 0.631337 14.858 0.639001C14.8427 0.646666 14.8274 0.654331 14.8044 0.661996C14.789 0.66966 14.766 0.677325 14.7507 0.692655C14.7354 0.700319 14.7201 0.707984 14.7047 0.715649C14.6817 0.723314 14.6664 0.738643 14.6511 0.746308C14.6357 0.753973 14.6204 0.761637 14.6051 0.769302C14.5821 0.776967 14.5668 0.792297 14.5438 0.807626C14.5284 0.815291 14.5208 0.822956 14.5054 0.83062C14.4824 0.84595 14.4671 0.853615 14.4441 0.868944C14.4365 0.876609 14.4211 0.884274 14.4135 0.891938C14.3905 0.907268 14.3751 0.922597 14.3521 0.937927C14.3445 0.945592 14.3291 0.953257 14.3215 0.960921C14.2985 0.976251 14.2832 0.99158 14.2602 1.01457C14.2525 1.02224 14.2448 1.0299 14.2372 1.03757C14.2142 1.0529 14.1912 1.07589 14.1759 1.09889C14.1682 1.10655 14.1682 1.10655 14.1605 1.11422C14.1375 1.13721 14.1145 1.16021 14.0915 1.1832C13.693 1.58177 13.44 2.1183 13.394 2.71615C13.3864 2.78513 13.3864 2.84645 13.3864 2.91544C13.3864 3.42897 13.5473 3.90419 13.8156 4.30276C13.8233 4.31809 13.8309 4.33342 13.8463 4.34108C13.8693 4.37174 13.8923 4.41006 13.9229 4.44072C13.9306 4.44839 13.9382 4.45605 13.9382 4.46372C13.9612 4.49438 13.9842 4.51737 14.0072 4.54037C14.0149 4.54803 14.0226 4.56336 14.0379 4.57102C14.0609 4.59402 14.0839 4.62468 14.1069 4.64767C14.1145 4.65534 14.1222 4.663 14.1222 4.663C14.1529 4.69366 14.1835 4.72432 14.2218 4.75498C14.2295 4.76264 14.2295 4.76264 14.2372 4.77031C14.2678 4.7933 14.2985 4.82396 14.3291 4.84696C14.3368 4.85462 14.3445 4.85462 14.3521 4.86229C14.3905 4.89294 14.4211 4.91594 14.4594 4.9466C14.6587 5.08456 14.8887 5.19953 15.1263 5.27618L15.1186 13.8224L13.3404 14.9108L14.7277 15.8152L15.8391 15.0947L25.8033 21.6021C25.7726 21.7631 25.7496 21.9394 25.7496 22.108C25.7496 22.3686 25.788 22.6215 25.8646 22.8591L18.3455 27.7493C18.6291 28.1785 18.8054 28.692 18.8284 29.2439L26.7537 24.1008C27.045 24.3155 27.3822 24.4687 27.7501 24.5377C27.7961 24.5454 27.8421 24.5531 27.8881 24.5607C27.9188 24.5684 27.9418 24.5684 27.9724 24.5684C27.9954 24.5684 28.0261 24.5761 28.0491 24.5761C28.1027 24.5837 28.1487 24.5837 28.2024 24.5837C28.2254 24.5837 28.2484 24.5837 28.279 24.5837H28.3173C28.348 24.5837 28.371 24.5837 28.4016 24.5761C28.417 24.5761 28.4323 24.5761 28.44 24.5761C28.4706 24.5761 28.4936 24.5684 28.5243 24.5684L28.5626 24.5607C28.5933 24.5531 28.6239 24.5531 28.6469 24.5454C28.6546 24.5454 28.6699 24.5454 28.6776 24.5377C28.7082 24.5301 28.7389 24.5224 28.7696 24.5224C28.7772 24.5224 28.7849 24.5224 28.7926 24.5147C28.8232 24.5071 28.8615 24.4994 28.8922 24.4917H28.8999C28.9382 24.4841 28.9688 24.4687 29.0072 24.4611C29.2754 24.3768 29.5207 24.2388 29.7353 24.0702C29.766 24.0472 29.7966 24.0242 29.8196 24.0012C29.8273 24.0012 29.8273 23.9935 29.8273 23.9935C29.8503 23.9705 29.8809 23.9475 29.9039 23.9245C29.9116 23.9169 29.9193 23.9092 29.9193 23.9092C29.9423 23.8862 29.9653 23.8709 29.9806 23.8479C29.9883 23.8402 29.9959 23.8326 30.0036 23.8249C30.0189 23.8019 30.0419 23.7866 30.0572 23.7636C30.0649 23.7559 30.0802 23.7406 30.0879 23.7329C30.1032 23.7176 30.1186 23.6946 30.1339 23.6793C30.1416 23.6639 30.1569 23.6563 30.1645 23.641C30.1799 23.6256 30.1952 23.6026 30.2029 23.5873C30.2105 23.572 30.2259 23.5566 30.2335 23.5413C30.2489 23.526 30.2565 23.503 30.2719 23.4877C30.2795 23.4723 30.2948 23.457 30.3025 23.4417C30.3102 23.4263 30.3255 23.4033 30.3332 23.388C30.3408 23.3727 30.3485 23.3574 30.3638 23.342C30.3715 23.319 30.3868 23.3037 30.3945 23.2807C30.4022 23.2654 30.4098 23.25 30.4175 23.2347C30.4251 23.2117 30.4405 23.1887 30.4481 23.1657C30.4558 23.1504 30.4635 23.1427 30.4635 23.1274C30.4711 23.1044 30.4865 23.0814 30.4941 23.0508C30.5018 23.0354 30.5018 23.0278 30.5095 23.0124C30.5171 22.9818 30.5325 22.9588 30.5401 22.9281C30.5401 22.9205 30.5478 22.9128 30.5478 22.8975C30.5554 22.8668 30.5708 22.8362 30.5784 22.8055C30.5784 22.7978 30.5861 22.7902 30.5861 22.7825C30.5938 22.7518 30.6014 22.7212 30.6091 22.6829C30.6091 22.6752 30.6091 22.6675 30.6168 22.6599C30.6244 22.6292 30.6321 22.5909 30.6398 22.5602C30.6398 22.5526 30.6398 22.5449 30.6474 22.5372C30.6551 22.5066 30.6551 22.4759 30.6628 22.4452C30.6628 22.4299 30.6628 22.4223 30.6704 22.4069C30.6704 22.3839 30.6781 22.3533 30.6781 22.3303C30.6781 22.3149 30.6781 22.292 30.6857 22.2766C30.6857 22.2536 30.6857 22.2383 30.6857 22.2153C30.6857 22.1923 30.6857 22.1617 30.6857 22.1387V22.108C30.6934 21.97 30.6857 21.8397 30.6628 21.7094ZM15.8391 3.83521C15.3102 3.83521 14.881 3.40598 14.881 2.87711C14.881 2.34824 15.3102 1.91902 15.8391 1.91902C16.368 1.91902 16.7972 2.34824 16.7972 2.87711C16.7895 3.40598 16.368 3.83521 15.8391 3.83521ZM28.2254 23.0738C27.6965 23.0738 27.2749 22.6445 27.2749 22.1157C27.2749 21.5868 27.7042 21.1652 28.2254 21.1652C28.7542 21.1652 29.1835 21.5945 29.1835 22.1157C29.1758 22.6445 28.7542 23.0738 28.2254 23.0738Z" fill="white"/>
</g>
</g>
<g id="XMLID 15">
<g id="XMLID 16">
<path id="XMLID 17" d="M30.5862 9.2541C30.2872 8.28834 29.4058 7.57551 28.3557 7.52186C28.3097 7.52186 28.2714 7.52186 28.2254 7.52186C28.1871 7.52186 28.1411 7.52186 28.1028 7.52186C28.0874 7.52186 28.0721 7.52186 28.0645 7.52186C28.0415 7.52186 28.0108 7.52186 27.9878 7.52952C27.9725 7.52952 27.9571 7.52952 27.9418 7.53719C27.9188 7.53719 27.8958 7.54485 27.8728 7.54485C27.8575 7.54485 27.8345 7.55252 27.8192 7.55252C27.7962 7.55252 27.7809 7.56018 27.7579 7.56018C27.7425 7.56018 27.7195 7.56785 27.7042 7.57551C27.6889 7.58318 27.6659 7.58318 27.6506 7.59084C27.6276 7.59851 27.6122 7.59851 27.5892 7.60617C27.5739 7.61384 27.5586 7.61384 27.5356 7.6215C27.5126 7.62917 27.4973 7.63683 27.4743 7.63683C27.4589 7.6445 27.4436 7.6445 27.4359 7.65216C27.4129 7.65983 27.39 7.66749 27.367 7.67516C27.3593 7.67516 27.3516 7.68282 27.344 7.68282C27.2213 7.72881 27.0987 7.79013 26.9837 7.85911C26.9761 7.85911 26.9761 7.86677 26.9761 7.86677C26.9531 7.8821 26.9224 7.89743 26.8994 7.91276C26.8917 7.91276 26.8917 7.92043 26.8841 7.92043C26.8611 7.93576 26.8304 7.95109 26.8074 7.97408C26.7998 7.97408 26.7998 7.98175 26.7921 7.98175C26.7691 7.99708 26.7384 8.02007 26.7155 8.0354L26.7078 8.04306C26.6848 8.06606 26.6541 8.08139 26.6311 8.10438C26.2402 8.43397 25.9566 8.87852 25.834 9.39206C25.8263 9.43805 25.811 9.48404 25.8033 9.53003C25.8033 9.53769 25.8033 9.54536 25.7957 9.55302C25.788 9.59135 25.7804 9.62967 25.7804 9.66799C25.7804 9.68332 25.7804 9.69099 25.7727 9.70632C25.765 9.74464 25.765 9.7753 25.765 9.81362C25.765 9.82895 25.765 9.83662 25.765 9.85195C25.765 9.89794 25.7574 9.94392 25.7574 9.99758C25.7574 10.0512 25.7574 10.0972 25.765 10.1432C25.765 10.1585 25.765 10.1815 25.765 10.1969C25.7804 10.3655 25.811 10.5264 25.8493 10.6797L19.3113 14.926L20.6986 15.8305L26.6925 11.9368C26.9147 12.1131 27.1677 12.251 27.4436 12.343L27.4359 19.2259C27.8038 19.1263 28.2024 19.0956 28.601 19.1416C28.7236 19.157 28.8386 19.18 28.9459 19.2106L28.9536 12.3507C29.2678 12.251 29.5591 12.0901 29.8044 11.8831L29.812 11.8754C29.8503 11.8448 29.881 11.8141 29.9193 11.7758C29.9347 11.7605 29.95 11.7451 29.9653 11.7298C29.996 11.6992 30.019 11.6762 30.042 11.6455C30.0573 11.6302 30.065 11.6225 30.0803 11.6072C30.1109 11.5689 30.1493 11.5305 30.1799 11.4845C30.1953 11.4692 30.2029 11.4539 30.2183 11.4386C30.2412 11.4079 30.2642 11.3696 30.2872 11.3389C30.2949 11.3236 30.3102 11.3083 30.3179 11.2929C30.3486 11.2469 30.3715 11.2009 30.4022 11.155C30.4099 11.1396 30.4175 11.1243 30.4252 11.109C30.4482 11.0706 30.4635 11.0323 30.4789 10.994C30.4865 10.9787 30.4942 10.9633 30.5018 10.948C30.5248 10.8944 30.5402 10.8484 30.5632 10.7947C30.5708 10.7794 30.5708 10.7717 30.5785 10.7564C30.5938 10.7104 30.6092 10.6644 30.6168 10.6184C30.6245 10.6031 30.6245 10.5878 30.6321 10.5724C30.6475 10.5188 30.6551 10.4575 30.6705 10.4038C30.6705 10.3961 30.6705 10.3885 30.6705 10.3808C30.6781 10.3272 30.6858 10.2735 30.6935 10.2199C30.6935 10.2045 30.6935 10.1892 30.7011 10.1739C30.7088 10.1125 30.7088 10.0512 30.7088 9.98991C30.6935 9.73698 30.6551 9.48404 30.5862 9.2541ZM28.2254 10.9403C27.6965 10.9403 27.275 10.5111 27.275 9.98225C27.275 9.45338 27.7042 9.02415 28.2254 9.02415C28.7543 9.02415 29.1835 9.45338 29.1835 9.98225C29.1758 10.5188 28.7543 10.9403 28.2254 10.9403Z" fill="white"/>
</g>
</g>
<g id="XMLID 9">
<g id="XMLID 10">
<path id="XMLID 11" d="M18.3377 17.3635L16.9504 16.4591L15.839 17.1796L5.85179 10.6569C5.91311 10.4423 5.94377 10.22 5.94377 9.99003C5.94377 9.77542 5.91311 9.56847 5.86712 9.36918L13.3326 4.51739C13.049 4.08816 12.8727 3.57462 12.8497 3.02276L5.05466 8.08917C4.84771 7.91288 4.6101 7.77491 4.3495 7.67527C4.32651 7.66761 4.29585 7.65228 4.27285 7.64461C4.26519 7.64461 4.25752 7.63695 4.24986 7.63695C4.2192 7.62928 4.19621 7.62162 4.16555 7.61395C4.15788 7.61395 4.15022 7.61395 4.14255 7.61395C4.11189 7.60629 4.0889 7.59862 4.05824 7.59096C4.05058 7.59096 4.04291 7.58329 4.03525 7.58329C4.00459 7.57563 3.98159 7.56797 3.95093 7.56797C3.94327 7.56797 3.9356 7.5603 3.92027 7.5603C3.89728 7.55264 3.86662 7.55264 3.83596 7.54497C3.8283 7.54497 3.81297 7.54497 3.8053 7.53731C3.78231 7.52964 3.75165 7.52964 3.72866 7.52964C3.72099 7.52964 3.70566 7.52964 3.698 7.52964C3.66734 7.52964 3.64434 7.52198 3.61368 7.52198C3.60602 7.52198 3.59069 7.52198 3.58302 7.52198C3.5447 7.52198 3.50638 7.52198 3.46805 7.52198C2.10373 7.51431 1 8.6257 1 9.99003C1 10.0513 1 10.1127 1.00766 10.174C1.00766 10.1893 1.00766 10.197 1.00766 10.2123C1.01533 10.2736 1.02299 10.3273 1.03066 10.3886C1.03066 10.3963 1.03066 10.4116 1.03832 10.4193C1.04599 10.4729 1.06132 10.5266 1.06898 10.5802C1.06898 10.5879 1.06898 10.5955 1.07665 10.6032C1.09198 10.6569 1.10731 10.7182 1.12264 10.7718C1.12264 10.7795 1.1303 10.7948 1.1303 10.8025C1.14563 10.8561 1.16862 10.9098 1.19162 10.9635C1.19162 10.9711 1.19162 10.9711 1.19928 10.9788C1.22228 11.0324 1.24527 11.0784 1.26827 11.1321C1.27593 11.1397 1.27593 11.1474 1.2836 11.1551C1.30659 11.2087 1.33725 11.2547 1.36791 11.3007C1.37557 11.3084 1.37557 11.316 1.38324 11.3237C1.4139 11.3697 1.44456 11.4233 1.48288 11.4693C1.5212 11.5153 1.55186 11.5613 1.59019 11.6073C1.59785 11.615 1.60552 11.6226 1.60552 11.6303C1.64384 11.6763 1.68216 11.7146 1.72815 11.7606L1.73582 11.7683C1.77414 11.8066 1.82013 11.8449 1.86612 11.8832L1.87378 11.8909C1.91977 11.9292 1.96576 11.9675 2.01175 11.9982C2.01941 12.0059 2.02708 12.0059 2.02708 12.0135C2.12672 12.0825 2.22636 12.1438 2.33367 12.1975C2.34133 12.1975 2.349 12.2051 2.349 12.2051C2.40265 12.2281 2.4563 12.2588 2.50996 12.2818C2.51762 12.2818 2.51762 12.2818 2.52529 12.2895C2.57894 12.3125 2.64026 12.3354 2.70158 12.3508C2.93918 12.4274 3.19212 12.4657 3.45272 12.4657C3.73632 12.4657 4.00459 12.4198 4.25752 12.3278C4.28052 12.3201 4.29585 12.3125 4.31884 12.3048C4.35717 12.2895 4.39549 12.2741 4.43381 12.2588C4.44914 12.2511 4.47214 12.2435 4.48747 12.2358C4.51046 12.2205 4.54112 12.2128 4.56411 12.1975C4.57944 12.1898 4.60244 12.1822 4.61777 12.1668C4.65609 12.1438 4.69442 12.1285 4.72507 12.1055C4.81705 12.0519 4.90903 11.9905 4.99334 11.9215L15.0802 18.4979L15.0725 27.0518C14.5283 27.2281 14.0761 27.5883 13.7695 28.0559L6.28869 23.1658C6.10473 23.6486 5.80581 24.0779 5.4149 24.4074L13.3863 29.6118C13.4016 29.7651 13.4246 29.9184 13.4706 30.064C13.4782 30.0794 13.4782 30.0947 13.4859 30.11C13.4936 30.1254 13.4936 30.1484 13.5012 30.1637C13.5089 30.179 13.5166 30.202 13.5166 30.2173C13.5242 30.2327 13.5319 30.248 13.5319 30.271C13.5395 30.2863 13.5472 30.3093 13.5549 30.3246C13.5625 30.34 13.5702 30.3553 13.5779 30.3706C13.5855 30.386 13.5932 30.409 13.6009 30.4243C13.6085 30.4396 13.6162 30.4549 13.6239 30.4703C13.6315 30.4856 13.6392 30.5086 13.6469 30.5239C13.6545 30.5393 13.6622 30.5546 13.6699 30.5699C13.6775 30.5852 13.6852 30.6006 13.7005 30.6236C13.7082 30.6389 13.7158 30.6542 13.7235 30.6696C13.7312 30.6849 13.7465 30.7002 13.7542 30.7232C13.7618 30.7385 13.7695 30.7539 13.7772 30.7615C13.7848 30.7769 13.8002 30.7922 13.8078 30.8075C13.8155 30.8229 13.8231 30.8305 13.8385 30.8458C13.8538 30.8612 13.8615 30.8765 13.8768 30.8918C13.8845 30.8995 13.8921 30.9148 13.8998 30.9225C13.9228 30.9532 13.9534 30.9915 13.9764 31.0221C13.9841 31.0298 13.9918 31.0451 14.0071 31.0528C14.0224 31.0681 14.0301 31.0835 14.0454 31.0911C14.0531 31.1064 14.0684 31.1141 14.0761 31.1294C14.0914 31.1448 14.0991 31.1524 14.1144 31.1678C14.1297 31.1831 14.1374 31.1908 14.1527 31.2061C14.1681 31.2214 14.1834 31.2291 14.1911 31.2444C14.2064 31.2597 14.214 31.2674 14.2294 31.2751C14.2447 31.2904 14.26 31.2981 14.2754 31.3134C14.2907 31.3211 14.306 31.3364 14.3137 31.3441C14.329 31.3517 14.3444 31.367 14.3597 31.3747C14.375 31.3824 14.3903 31.3977 14.4057 31.4054C14.421 31.413 14.4363 31.4284 14.4517 31.436C14.467 31.4437 14.4823 31.459 14.4976 31.4667C14.513 31.4744 14.5283 31.482 14.5436 31.4974C14.559 31.505 14.5743 31.5203 14.5896 31.528C14.605 31.5357 14.6203 31.5433 14.6356 31.551C14.6509 31.5587 14.6739 31.574 14.6969 31.5817C14.7123 31.5893 14.7199 31.597 14.7353 31.6047C14.7659 31.62 14.7966 31.6353 14.8272 31.6506C14.8426 31.6583 14.8502 31.6583 14.8656 31.666C14.8885 31.6736 14.9115 31.6813 14.9269 31.6966C14.9422 31.7043 14.9575 31.7043 14.9729 31.712C14.9959 31.7196 15.0112 31.7273 15.0342 31.735C15.0495 31.7426 15.0648 31.7426 15.0802 31.7503C15.1032 31.758 15.1185 31.7656 15.1415 31.7656C15.1568 31.7733 15.1721 31.7733 15.1875 31.7809C15.2105 31.7886 15.2258 31.7886 15.2488 31.7963C15.2641 31.8039 15.2795 31.8039 15.2948 31.8116C15.3178 31.8193 15.3331 31.8193 15.3561 31.8269C15.3714 31.8269 15.3868 31.8346 15.4021 31.8346C15.4251 31.8423 15.4481 31.8423 15.4634 31.8423C15.4787 31.8423 15.4941 31.8499 15.5094 31.8499C15.5324 31.8499 15.5554 31.8576 15.5784 31.8576C15.5937 31.8576 15.609 31.8576 15.6244 31.8653C15.6474 31.8653 15.678 31.8729 15.701 31.8729C15.7163 31.8729 15.724 31.8729 15.7393 31.8729C15.7777 31.8729 15.816 31.8729 15.8543 31.8729C15.8926 31.8729 15.9386 31.8729 15.9769 31.8729C15.9923 31.8729 16.0076 31.8729 16.0153 31.8729C16.0459 31.8729 16.0689 31.8653 16.0996 31.8653C16.1149 31.8653 16.1302 31.8576 16.1532 31.8576C16.1762 31.8576 16.1992 31.8499 16.2222 31.8499C16.2375 31.8499 16.2605 31.8423 16.2759 31.8423C16.2989 31.8423 16.3219 31.8346 16.3449 31.8346C16.3602 31.8269 16.3832 31.8269 16.3985 31.8193C16.4215 31.8116 16.4368 31.8116 16.4598 31.8039C16.4752 31.7963 16.4981 31.7963 16.5135 31.7886C16.5365 31.7809 16.5518 31.7809 16.5748 31.7733C16.5901 31.7656 16.6131 31.758 16.6284 31.758C16.6438 31.7503 16.6668 31.7426 16.6821 31.7426C16.6974 31.735 16.7204 31.7273 16.7358 31.7196C16.7511 31.712 16.7741 31.7043 16.7894 31.6966C16.8124 31.689 16.8277 31.6813 16.8507 31.6736C16.8661 31.666 16.8814 31.6583 16.8967 31.6506C16.9197 31.643 16.935 31.6353 16.958 31.62C16.9734 31.6123 16.9887 31.6047 17.004 31.597C17.027 31.5893 17.0423 31.574 17.0653 31.5663C17.0807 31.5587 17.096 31.551 17.1037 31.5433C17.1267 31.528 17.142 31.5203 17.165 31.505C17.1803 31.4974 17.188 31.4897 17.2033 31.482C17.2263 31.4667 17.2416 31.459 17.2646 31.4437C17.2723 31.436 17.2876 31.4284 17.2953 31.4207C17.3183 31.4054 17.3336 31.39 17.3566 31.3747C17.3643 31.367 17.3719 31.3594 17.3873 31.3517C17.4103 31.3364 17.4333 31.3211 17.4486 31.2981C17.4562 31.2904 17.4639 31.2827 17.4716 31.2827C17.4946 31.2674 17.5176 31.2444 17.5406 31.2214C17.5482 31.2214 17.5482 31.2138 17.5559 31.2138C17.9391 30.8535 18.2074 30.3783 18.2994 29.8418C18.307 29.8034 18.3147 29.7651 18.3147 29.7268C18.3224 29.6885 18.3224 29.6501 18.33 29.6118C18.3377 29.5428 18.3377 29.4815 18.3377 29.4125C18.3377 28.899 18.1844 28.4238 17.9161 28.0329C17.9085 28.0175 17.8931 28.0022 17.8855 27.9869C17.8625 27.9562 17.8395 27.9179 17.8088 27.8872C17.8012 27.8719 17.7858 27.8566 17.7782 27.8489C17.7552 27.8259 17.7398 27.8029 17.7168 27.7799C17.7092 27.7646 17.6939 27.7569 17.6862 27.7416C17.6555 27.711 17.6249 27.6803 17.5942 27.6496C17.5865 27.642 17.5712 27.6266 17.5636 27.619C17.5406 27.596 17.5099 27.573 17.4869 27.55C17.4792 27.5423 17.4716 27.5347 17.4562 27.527C17.4256 27.4963 17.3873 27.4734 17.3489 27.4427C17.3413 27.435 17.3259 27.4274 17.3183 27.4197C17.2876 27.3967 17.2493 27.3737 17.2186 27.3507C17.211 27.343 17.211 27.343 17.2033 27.3354C17.165 27.3124 17.1267 27.2894 17.0807 27.2664C16.935 27.1821 16.7817 27.1208 16.6208 27.0671L16.6284 18.5209L18.3377 17.3635ZM3.46805 10.9405C2.93918 10.9405 2.50996 10.5112 2.50996 9.98237C2.50996 9.4535 2.93918 9.02427 3.46805 9.02427C3.99692 9.02427 4.42615 9.4535 4.42615 9.98237C4.42615 10.5189 3.99692 10.9405 3.46805 10.9405ZM16.7894 29.3972C16.7894 29.9261 16.3602 30.3553 15.8313 30.3553C15.3024 30.3553 14.8732 29.9261 14.8732 29.3972C14.8732 28.8683 15.3024 28.4391 15.8313 28.4391C16.3678 28.4468 16.7894 28.8683 16.7894 29.3972Z" fill="white"/>
</g>
</g>
<g id="XMLID 4">
<g id="XMLID 5">
<path id="XMLID 6" d="M10.9797 16.4513L5.10845 20.2684C4.85551 20.0461 4.55658 19.8775 4.23466 19.7702L4.24233 12.8949C3.99706 12.9638 3.73645 12.9945 3.47585 12.9945C3.21525 12.9945 2.96998 12.9638 2.72471 12.9025L2.71704 19.7702C2.34913 19.8851 2.01188 20.0921 1.74362 20.3603C1.73595 20.368 1.72062 20.3833 1.71296 20.391C1.6823 20.4217 1.65164 20.4523 1.62865 20.483C1.61332 20.4983 1.60565 20.5136 1.59032 20.529C1.55966 20.5673 1.52134 20.6133 1.49068 20.6516C1.48301 20.6593 1.47535 20.6746 1.46769 20.6823C1.44469 20.7206 1.41403 20.7512 1.39104 20.7896C1.38337 20.8049 1.36804 20.8202 1.36038 20.8356C1.32972 20.8815 1.30673 20.9275 1.28373 20.9735C1.27607 20.9812 1.27607 20.9889 1.2684 20.9965C1.24541 21.0425 1.23008 21.0808 1.20708 21.1268C1.19942 21.1421 1.19175 21.1575 1.18409 21.1728C1.16109 21.2265 1.14577 21.2724 1.12277 21.3261C1.12277 21.3338 1.12277 21.3414 1.11511 21.3414C1.09978 21.3874 1.08445 21.4411 1.06912 21.4947C1.06145 21.5101 1.06145 21.5254 1.05379 21.5407C1.03846 21.5944 1.03079 21.6557 1.01546 21.7093V21.717C1.0078 21.7707 1.00013 21.832 0.99247 21.8856C0.99247 21.901 0.99247 21.9163 0.99247 21.9316C1.00013 21.9929 1.00013 22.0543 1.00013 22.1156C1.00013 23.4799 2.10386 24.5836 3.46819 24.5836C3.52951 24.5836 3.59082 24.5836 3.65214 24.576C3.65981 24.576 3.67514 24.576 3.6828 24.576C3.74412 24.5683 3.79777 24.5606 3.85909 24.553C3.86676 24.553 3.88209 24.5453 3.88975 24.5453C3.95107 24.5376 4.00472 24.5223 4.06604 24.507C4.12736 24.4916 4.18101 24.4763 4.23466 24.4533C4.24233 24.4533 4.24999 24.4457 4.25766 24.4457C4.31131 24.4303 4.36496 24.4073 4.41862 24.3843C4.42628 24.3767 4.43395 24.3767 4.44928 24.369C4.50293 24.346 4.55658 24.323 4.61024 24.2924C4.61024 24.2924 4.61024 24.2924 4.6179 24.2924C4.67156 24.2617 4.71754 24.2387 4.7712 24.2081C4.77886 24.2004 4.78653 24.2004 4.79419 24.1927C4.84018 24.1621 4.88617 24.1314 4.93216 24.0931C5.35372 23.7865 5.66797 23.3496 5.82893 22.8437C5.84426 22.7901 5.85959 22.7441 5.87492 22.6904C5.87492 22.6751 5.88259 22.6598 5.88259 22.6521C5.89025 22.6061 5.90558 22.5525 5.91325 22.5065C5.91325 22.4988 5.91325 22.4835 5.92091 22.4758C5.92858 22.4298 5.93624 22.3838 5.93624 22.3302C5.93624 22.3149 5.93624 22.2919 5.94391 22.2765C5.95157 22.2229 5.95157 22.1616 5.95157 22.1079C5.95157 21.9163 5.92858 21.74 5.89025 21.5637L12.3746 17.3481L10.9797 16.4513ZM3.46819 23.0737C2.93932 23.0737 2.51009 22.6444 2.51009 22.1156C2.51009 21.5867 2.93932 21.1651 3.46819 21.1651C3.99706 21.1651 4.42628 21.5944 4.42628 22.1156C4.42628 22.6444 3.99706 23.0737 3.46819 23.0737Z" fill="white"/>
</g>
</g>
</g>
</g>
</g>
<defs>
<clipPath id="clip0_101_1235">
<rect width="31" height="32" fill="white"/>
</clipPath>
</defs>
</svg>
