<svg width="160" height="128" viewBox="0 0 160 128" fill="none" xmlns="http://www.w3.org/2000/svg">
<g opacity="0.516">
<path d="M72.4713 7.52051H64.972V15.0198H72.4713C73.4657 15.0198 74.4195 14.6247 75.1227 13.9216C75.8258 13.2184 76.2209 12.2646 76.2209 11.2702C76.2209 10.2757 75.8258 9.32195 75.1227 8.61875C74.4195 7.91556 73.4657 7.52051 72.4713 7.52051Z" fill="#7CF0EE"/>
<path d="M90.4296 7.5197H82.9303C82.9303 5.53098 82.1403 3.62372 80.7341 2.21749C79.3279 0.811254 77.4206 0.0212402 75.4319 0.0212402L3.69361 0.0212402C2.70896 0.0359575 1.76962 0.437439 1.07851 1.13895C0.387398 1.84047 0 2.78571 0 3.77047C0 4.75523 0.387398 5.70047 1.07851 6.40198C1.76962 7.1035 2.70896 7.50498 3.69361 7.5197H11.1921C11.1921 9.50841 11.9821 11.4157 13.3883 12.8219C14.7945 14.2281 16.7018 15.0182 18.6905 15.0182H90.4288C91.4135 15.0034 92.3528 14.602 93.0439 13.9004C93.735 13.1989 94.1224 12.2537 94.1224 11.2689C94.1224 10.2842 93.735 9.33893 93.0439 8.63741C92.3528 7.93589 91.4135 7.53441 90.4288 7.5197H90.4296Z" fill="#BDF7F7"/>
<path d="M157.532 24.311H152.597V29.2466H157.532C158.187 29.2466 158.814 28.9866 159.277 28.5238C159.74 28.061 160 27.4333 160 26.7788C160 26.1243 159.74 25.4966 159.277 25.0338C158.814 24.571 158.187 24.311 157.532 24.311Z" fill="#7CF0EE"/>
<path d="M157.484 30.5454C157.484 29.0897 157.014 27.9088 156.432 27.9088C156.432 24.9967 155.49 22.6323 154.329 22.6323H139.639C138.477 22.6323 137.535 24.9933 137.535 27.9088H129.997C128.836 27.9088 127.893 30.269 127.893 33.1853H125.789C125.207 33.1819 124.737 34.362 124.737 35.8185C124.737 37.275 125.207 38.455 125.789 38.455H144.688C145.85 38.455 146.792 36.094 146.792 33.1786H156.435C157.016 33.1819 157.484 32.0018 157.484 30.5454Z" fill="#BDF7F7"/>
</g>
<path d="M131.346 99.9136H141.877V80.6068L126.081 56.0352H106.774V99.9136H113.795" fill="#EB3B5A"/>
<path d="M47.3357 99.914H31.4878V46.073H106.774V99.914H67.1501" fill="#EBEDF3"/>
<path d="M43.9018 89.1199H30.9476V93.4382H43.9018V89.1199Z" fill="#ABB1BB"/>
<path d="M106.514 89.1199H67.6518V93.4382H106.514V89.1199Z" fill="#ABB1BB"/>
<path d="M141.877 89.1182H133.242V93.4365H141.877V89.1182Z" fill="#DBDBDB"/>
<path d="M106.514 54.3674H30.9476V58.6858H106.514V54.3674Z" fill="#ABB1BB"/>
<path d="M57.0788 108.381C61.7044 108.381 65.4542 104.631 65.4542 100.005C65.4542 95.3799 61.7044 91.6301 57.0788 91.6301C52.4532 91.6301 48.7035 95.3799 48.7035 100.005C48.7035 104.631 52.4532 108.381 57.0788 108.381Z" fill="#2E3C40"/>
<path d="M121.273 108.381C125.899 108.381 129.649 104.631 129.649 100.005C129.649 95.3799 125.899 91.6301 121.273 91.6301C116.648 91.6301 112.898 95.3799 112.898 100.005C112.898 104.631 116.648 108.381 121.273 108.381Z" fill="#2E3C40"/>
<path d="M59.1449 97.7522H54.8265V102.071H59.1449V97.7522Z" fill="#DBDBDB"/>
<path d="M123.339 97.7522H119.021V102.071H123.339V97.7522Z" fill="#DBDBDB"/>
<path d="M56.9857 38.4551H26.759V42.7734H56.9857V38.4551Z" fill="#DBDBDB"/>
<path d="M22.4408 38.4551H18.1224V42.7734H22.4408V38.4551Z" fill="#DBDBDB"/>
<path d="M128.868 60.3604H110.284V77.838H140.112L128.868 60.3604Z" fill="#71EBDF"/>
<path d="M110.306 55.7639H106.774V99.9163H110.306V55.7639Z" fill="#D13450"/>
<path d="M140.112 77.8403L129.568 61.4304C124.385 67.5801 117.76 72.3504 110.284 75.3151V77.8394H140.112V77.8403Z" fill="#10CFBD"/>
<path d="M156.635 108.381H3.36549V127.644H156.635V108.381Z" fill="#ABB1BB"/>
</svg>
